<mxfile host="app.diagrams.net" agent="Mozilla/5.0 (Macintosh; Intel Mac OS X 10_15_7) AppleWebKit/537.36 (KHTML, like Gecko) Chrome/128.0.0.0 Safari/537.36" version="24.7.16">
  <diagram name="第 1 页" id="H3WfZsoa6K1u_R5bRYDL">
    <mxGraphModel dx="2069" dy="1954" grid="1" gridSize="10" guides="1" tooltips="1" connect="1" arrows="1" fold="1" page="1" pageScale="1" pageWidth="827" pageHeight="1169" math="0" shadow="0">
      <root>
        <mxCell id="0" />
        <mxCell id="1" parent="0" />
        <mxCell id="vJKsuOYSqLE6Pfn5YdnU-1" value="字段更新事件" style="shape=process;whiteSpace=wrap;html=1;backgroundOutline=1;" vertex="1" parent="1">
          <mxGeometry x="128" y="-100" width="110" height="40" as="geometry" />
        </mxCell>
        <mxCell id="vJKsuOYSqLE6Pfn5YdnU-2" value="databus sh001" style="text;strokeColor=none;align=center;fillColor=none;html=1;verticalAlign=middle;whiteSpace=wrap;rounded=0;" vertex="1" parent="1">
          <mxGeometry x="122.5" y="-130" width="120" height="30" as="geometry" />
        </mxCell>
        <mxCell id="vJKsuOYSqLE6Pfn5YdnU-3" value="字段更新事件" style="shape=process;whiteSpace=wrap;html=1;backgroundOutline=1;" vertex="1" parent="1">
          <mxGeometry x="490" y="-100" width="110" height="40" as="geometry" />
        </mxCell>
        <mxCell id="vJKsuOYSqLE6Pfn5YdnU-4" value="databus sh004" style="text;strokeColor=none;align=center;fillColor=none;html=1;verticalAlign=middle;whiteSpace=wrap;rounded=0;" vertex="1" parent="1">
          <mxGeometry x="485" y="-130" width="120" height="30" as="geometry" />
        </mxCell>
        <mxCell id="vJKsuOYSqLE6Pfn5YdnU-9" style="edgeStyle=orthogonalEdgeStyle;rounded=0;orthogonalLoop=1;jettySize=auto;html=1;exitX=1;exitY=0.5;exitDx=0;exitDy=0;entryX=1;entryY=0.5;entryDx=0;entryDy=0;" edge="1" parent="1" source="vJKsuOYSqLE6Pfn5YdnU-6" target="vJKsuOYSqLE6Pfn5YdnU-1">
          <mxGeometry relative="1" as="geometry" />
        </mxCell>
        <mxCell id="vJKsuOYSqLE6Pfn5YdnU-14" style="edgeStyle=orthogonalEdgeStyle;rounded=0;orthogonalLoop=1;jettySize=auto;html=1;" edge="1" parent="1" source="vJKsuOYSqLE6Pfn5YdnU-6" target="vJKsuOYSqLE6Pfn5YdnU-10">
          <mxGeometry relative="1" as="geometry" />
        </mxCell>
        <mxCell id="vJKsuOYSqLE6Pfn5YdnU-15" style="edgeStyle=orthogonalEdgeStyle;rounded=0;orthogonalLoop=1;jettySize=auto;html=1;entryX=0;entryY=0.75;entryDx=0;entryDy=0;" edge="1" parent="1" source="vJKsuOYSqLE6Pfn5YdnU-6" target="vJKsuOYSqLE6Pfn5YdnU-11">
          <mxGeometry relative="1" as="geometry">
            <Array as="points">
              <mxPoint x="50" y="380" />
              <mxPoint x="50" y="705" />
            </Array>
          </mxGeometry>
        </mxCell>
        <mxCell id="vJKsuOYSqLE6Pfn5YdnU-21" style="edgeStyle=orthogonalEdgeStyle;rounded=0;orthogonalLoop=1;jettySize=auto;html=1;exitX=0.5;exitY=0;exitDx=0;exitDy=0;entryX=0.5;entryY=1;entryDx=0;entryDy=0;" edge="1" parent="1" source="vJKsuOYSqLE6Pfn5YdnU-6" target="vJKsuOYSqLE6Pfn5YdnU-17">
          <mxGeometry relative="1" as="geometry" />
        </mxCell>
        <mxCell id="vJKsuOYSqLE6Pfn5YdnU-6" value="dao-anchor-job sh001" style="ellipse;whiteSpace=wrap;html=1;" vertex="1" parent="1">
          <mxGeometry x="90" y="330" width="185" height="100" as="geometry" />
        </mxCell>
        <mxCell id="vJKsuOYSqLE6Pfn5YdnU-8" style="edgeStyle=orthogonalEdgeStyle;rounded=0;orthogonalLoop=1;jettySize=auto;html=1;exitX=1;exitY=0.5;exitDx=0;exitDy=0;entryX=1;entryY=0.5;entryDx=0;entryDy=0;" edge="1" parent="1" source="vJKsuOYSqLE6Pfn5YdnU-7" target="vJKsuOYSqLE6Pfn5YdnU-3">
          <mxGeometry relative="1" as="geometry">
            <Array as="points">
              <mxPoint x="750" y="380" />
              <mxPoint x="750" y="-80" />
            </Array>
          </mxGeometry>
        </mxCell>
        <mxCell id="vJKsuOYSqLE6Pfn5YdnU-16" style="edgeStyle=orthogonalEdgeStyle;rounded=0;orthogonalLoop=1;jettySize=auto;html=1;exitX=1;exitY=0.5;exitDx=0;exitDy=0;entryX=1;entryY=0.5;entryDx=0;entryDy=0;" edge="1" parent="1" source="vJKsuOYSqLE6Pfn5YdnU-7" target="vJKsuOYSqLE6Pfn5YdnU-12">
          <mxGeometry relative="1" as="geometry">
            <Array as="points">
              <mxPoint x="750" y="380" />
              <mxPoint x="750" y="690" />
            </Array>
          </mxGeometry>
        </mxCell>
        <mxCell id="vJKsuOYSqLE6Pfn5YdnU-22" style="edgeStyle=orthogonalEdgeStyle;rounded=0;orthogonalLoop=1;jettySize=auto;html=1;exitX=0.5;exitY=0;exitDx=0;exitDy=0;entryX=0.5;entryY=1;entryDx=0;entryDy=0;" edge="1" parent="1" source="vJKsuOYSqLE6Pfn5YdnU-7" target="vJKsuOYSqLE6Pfn5YdnU-19">
          <mxGeometry relative="1" as="geometry" />
        </mxCell>
        <mxCell id="vJKsuOYSqLE6Pfn5YdnU-7" value="dao-anchor-job sh004" style="ellipse;whiteSpace=wrap;html=1;" vertex="1" parent="1">
          <mxGeometry x="457.5" y="330" width="185" height="100" as="geometry" />
        </mxCell>
        <mxCell id="vJKsuOYSqLE6Pfn5YdnU-10" value="mysql sh001" style="shape=cylinder3;whiteSpace=wrap;html=1;boundedLbl=1;backgroundOutline=1;size=15;" vertex="1" parent="1">
          <mxGeometry x="134" y="480" width="97" height="105" as="geometry" />
        </mxCell>
        <mxCell id="vJKsuOYSqLE6Pfn5YdnU-11" value="redis sh001&lt;span style=&quot;color: rgba(0, 0, 0, 0); font-family: monospace; font-size: 0px; text-align: start; text-wrap: nowrap;&quot;&gt;%3CmxGraphModel%3E%3Croot%3E%3CmxCell%20id%3D%220%22%2F%3E%3CmxCell%20id%3D%221%22%20parent%3D%220%22%2F%3E%3CmxCell%20id%3D%222%22%20value%3D%22dao-anchor-job%20sh001%22%20style%3D%22ellipse%3BwhiteSpace%3Dwrap%3Bhtml%3D1%3B%22%20vertex%3D%221%22%20parent%3D%221%22%3E%3CmxGeometry%20x%3D%22162.5%22%20y%3D%22320%22%20width%3D%22185%22%20height%3D%22100%22%20as%3D%22geometry%22%2F%3E%3C%2FmxCell%3E%3C%2Froot%3E%3C%2FmxGraphModel%3E&lt;/span&gt;" style="rounded=1;whiteSpace=wrap;html=1;" vertex="1" parent="1">
          <mxGeometry x="123" y="660" width="120" height="60" as="geometry" />
        </mxCell>
        <mxCell id="vJKsuOYSqLE6Pfn5YdnU-12" value="redis sh004" style="rounded=1;whiteSpace=wrap;html=1;" vertex="1" parent="1">
          <mxGeometry x="490" y="660" width="120" height="60" as="geometry" />
        </mxCell>
        <mxCell id="vJKsuOYSqLE6Pfn5YdnU-13" style="edgeStyle=orthogonalEdgeStyle;rounded=0;orthogonalLoop=1;jettySize=auto;html=1;exitX=0.5;exitY=1;exitDx=0;exitDy=0;entryX=1;entryY=0.5;entryDx=0;entryDy=0;entryPerimeter=0;" edge="1" parent="1" source="vJKsuOYSqLE6Pfn5YdnU-7" target="vJKsuOYSqLE6Pfn5YdnU-10">
          <mxGeometry relative="1" as="geometry" />
        </mxCell>
        <mxCell id="vJKsuOYSqLE6Pfn5YdnU-17" value="表变更事件" style="shape=process;whiteSpace=wrap;html=1;backgroundOutline=1;" vertex="1" parent="1">
          <mxGeometry x="128" y="60" width="110" height="40" as="geometry" />
        </mxCell>
        <mxCell id="vJKsuOYSqLE6Pfn5YdnU-18" value="binlog sh001" style="text;html=1;align=center;verticalAlign=middle;resizable=0;points=[];autosize=1;strokeColor=none;fillColor=none;" vertex="1" parent="1">
          <mxGeometry x="135" y="28" width="90" height="30" as="geometry" />
        </mxCell>
        <mxCell id="vJKsuOYSqLE6Pfn5YdnU-19" value="表变更事件" style="shape=process;whiteSpace=wrap;html=1;backgroundOutline=1;" vertex="1" parent="1">
          <mxGeometry x="495" y="58" width="110" height="40" as="geometry" />
        </mxCell>
        <mxCell id="vJKsuOYSqLE6Pfn5YdnU-20" value="binlog sh004" style="text;html=1;align=center;verticalAlign=middle;resizable=0;points=[];autosize=1;strokeColor=none;fillColor=none;" vertex="1" parent="1">
          <mxGeometry x="500" y="30" width="90" height="30" as="geometry" />
        </mxCell>
        <mxCell id="vJKsuOYSqLE6Pfn5YdnU-28" style="edgeStyle=orthogonalEdgeStyle;rounded=0;orthogonalLoop=1;jettySize=auto;html=1;entryX=0;entryY=0.5;entryDx=0;entryDy=0;" edge="1" parent="1" source="vJKsuOYSqLE6Pfn5YdnU-24" target="vJKsuOYSqLE6Pfn5YdnU-1">
          <mxGeometry relative="1" as="geometry" />
        </mxCell>
        <mxCell id="vJKsuOYSqLE6Pfn5YdnU-24" value="开播服务 sh001" style="ellipse;whiteSpace=wrap;html=1;" vertex="1" parent="1">
          <mxGeometry x="122" y="-280" width="120" height="80" as="geometry" />
        </mxCell>
        <mxCell id="vJKsuOYSqLE6Pfn5YdnU-27" style="edgeStyle=orthogonalEdgeStyle;rounded=0;orthogonalLoop=1;jettySize=auto;html=1;entryX=0;entryY=0.5;entryDx=0;entryDy=0;" edge="1" parent="1" source="vJKsuOYSqLE6Pfn5YdnU-25" target="vJKsuOYSqLE6Pfn5YdnU-3">
          <mxGeometry relative="1" as="geometry" />
        </mxCell>
        <mxCell id="vJKsuOYSqLE6Pfn5YdnU-25" value="开播服务 sh004" style="ellipse;whiteSpace=wrap;html=1;" vertex="1" parent="1">
          <mxGeometry x="485" y="-280" width="120" height="80" as="geometry" />
        </mxCell>
        <mxCell id="vJKsuOYSqLE6Pfn5YdnU-30" style="edgeStyle=orthogonalEdgeStyle;rounded=0;orthogonalLoop=1;jettySize=auto;html=1;entryX=0;entryY=0.5;entryDx=0;entryDy=0;" edge="1" parent="1" source="vJKsuOYSqLE6Pfn5YdnU-29" target="vJKsuOYSqLE6Pfn5YdnU-17">
          <mxGeometry relative="1" as="geometry" />
        </mxCell>
        <mxCell id="vJKsuOYSqLE6Pfn5YdnU-29" value="DTS sh001" style="ellipse;whiteSpace=wrap;html=1;" vertex="1" parent="1">
          <mxGeometry x="-80" y="40" width="120" height="80" as="geometry" />
        </mxCell>
        <mxCell id="vJKsuOYSqLE6Pfn5YdnU-32" style="edgeStyle=orthogonalEdgeStyle;rounded=0;orthogonalLoop=1;jettySize=auto;html=1;entryX=0;entryY=0.5;entryDx=0;entryDy=0;" edge="1" parent="1" source="vJKsuOYSqLE6Pfn5YdnU-31" target="vJKsuOYSqLE6Pfn5YdnU-19">
          <mxGeometry relative="1" as="geometry" />
        </mxCell>
        <mxCell id="vJKsuOYSqLE6Pfn5YdnU-31" value="DTS sh004" style="ellipse;whiteSpace=wrap;html=1;" vertex="1" parent="1">
          <mxGeometry x="310" y="38" width="120" height="80" as="geometry" />
        </mxCell>
      </root>
    </mxGraphModel>
  </diagram>
</mxfile>
